<svg width="254" height="254" viewBox="0 0 254 254" fill="none" xmlns="http://www.w3.org/2000/svg">
<path id="Subtract" opacity="0.3" fill-rule="evenodd" clip-rule="evenodd" d="M125.999 1.07911e-05L125.999 97.7687C96.6271 97.5561 68.545 87.9823 47.8054 71.1314C39.4685 64.3576 32.5926 56.6322 27.3339 48.2752C50.4018 19.1095 85.9993 0.30871 125.999 1.07911e-05ZM127.999 0L127.999 97.7687C157.372 97.5561 185.454 87.9823 206.193 71.1314C214.53 64.3574 221.406 56.6316 226.665 48.2742C203.597 19.1087 167.999 0.308268 127.999 0ZM227.969 49.9512C222.64 58.2664 215.748 65.9447 207.454 72.6836C186.324 89.852 157.784 99.5561 127.999 99.7687V154.22C142.59 154.325 157.025 156.71 170.519 161.251C184.321 165.896 196.873 172.708 207.454 181.305C215.686 187.993 222.602 195.662 227.97 204.04C244.3 182.671 254 155.966 254 126.996C254 98.0252 244.299 71.3199 227.969 49.9512ZM226.666 205.717C221.368 197.297 214.466 189.58 206.193 182.858C195.81 174.421 183.472 167.72 169.881 163.146C156.598 158.676 142.378 156.325 127.999 156.22L127.999 253.992C168 253.684 203.598 234.883 226.666 205.717ZM125.999 253.992L125.999 156.22C111.62 156.325 97.4006 158.676 84.1176 163.146C70.5266 167.72 58.189 174.421 47.8054 182.858C39.5326 189.579 32.6314 197.296 27.333 205.716C50.4008 234.882 85.9987 253.684 125.999 253.992ZM26.0289 204.039C31.3976 195.661 38.3132 187.993 46.5442 181.305C57.126 172.708 69.678 165.896 83.4796 161.251C96.9732 156.71 111.409 154.325 125.999 154.22V99.7687C96.2141 99.5561 67.6746 89.852 46.5442 72.6836C38.2505 65.9449 31.3589 58.267 26.0301 49.9522C9.70031 71.3207 0 98.0256 0 126.996C0 155.966 9.69984 182.67 26.0289 204.039Z" fill="white"/>
</svg>
